<?xml version="1.0" encoding="utf-8"?>
<!-- Generator: Adobe Illustrator 27.5.0, SVG Export Plug-In . SVG Version: 6.00 Build 0)  -->
<svg version="1.1" xmlns="http://www.w3.org/2000/svg" xmlns:xlink="http://www.w3.org/1999/xlink" x="0px" y="0px"
	 viewBox="0 0 1000 800" style="enable-background:new 0 0 1000 800;" xml:space="preserve">
<g id="background">
	<rect x="0" style="fill:#FFFFFF;" width="1000" height="800"/>
</g>
<g id="shadow">
	<path style="fill:#F1F2F2;" d="M936.341,646.304H159.806c-24.562,0-44.659,9.179-44.659,20.398l0,0
		c0,7.768,9.64,14.556,23.722,17.998h-68.38c-24.562,0-44.659,9.179-44.659,20.398l0,0c0,11.219,20.096,20.398,44.659,20.398h23.827
		c-6.655,3.564-10.692,8.175-10.692,13.198v8.159c0,11.219,20.096,20.398,44.659,20.398h764.977
		c24.562,0,44.659-9.179,44.659-20.398v-8.159c0-11.219-20.096-20.398-44.659-20.398l-52.014,0.453
		c3.962,0,10.395-1.427,14.711-4.298c7.567-5.032,7.903-12.692,4.203-19.032c-2.399-4.11-6.241-7.369-15.762-8.595l91.944,0.275
		c24.562,0,44.659-9.179,44.659-20.398l0,0C981,655.483,960.904,646.304,936.341,646.304z"/>
</g>
<g id="object">
	<g>
		<g>
			<g>
				<g>
					<path style="fill:#D34E4E;" d="M324.277,92.222c-18.498,2.118-39.481,16.366-41.872,32.991
						c-8.541-14.462-38.362-18.502-56.273-13.418c-47.265,13.417-52.928,70.207-25.433,102.204
						c14.798,17.221,33.906,31.059,54.105,42.881c16.915,9.9,59.387,29.593,59.482,29.479c0.131,0.07,31.906-34.312,43.776-49.907
						c14.176-18.623,26.575-38.693,33.702-60.252C405.004,136.144,373.091,86.632,324.277,92.222z"/>
				</g>
			</g>
			<g style="opacity:0.12;">
				<g>
					<path d="M383.324,182.6c-9.111,16.833-20.289,33.153-33.034,47.79c-12.325,14.154-27.436,27.35-45.557,34.346
						c-8.705,3.36-17.576,4.888-26.311,4.62c17.662,8.794,36.708,17.591,36.771,17.514c0.131,0.069,31.906-34.312,43.776-49.907
						c14.176-18.623,26.575-38.693,33.702-60.252c2.306-6.976,3.239-14.238,2.955-21.446
						C392.303,164.644,388.1,173.776,383.324,182.6z"/>
				</g>
			</g>
			<g>
				<g>
					<path style="fill:#FFFFFF;" d="M379.511,167.532c-12.516,2.808-25.033,5.616-37.549,8.423
						c-7.819-15.614-15.639-31.228-23.458-46.842c-1.13-2.257-4.642-1.376-4.954,0.98c-4.052,30.674-8.104,61.347-12.156,92.02
						c-0.235,1.777-0.469,3.553-0.704,5.33c-10.366-17.614-20.733-35.227-31.099-52.841c-1.663-2.825-3.325-5.65-4.988-8.474
						c-1.002-1.703-4.165-1.831-4.809,0.351c-2.995,10.146-5.99,20.293-8.985,30.439c-14.078,2.785-28.155,5.57-42.233,8.355
						c-3.305,0.654-2.354,5.491,0.957,4.835c14.608-2.89,29.216-5.78,43.824-8.67c0.855-0.169,1.737-0.811,1.981-1.636
						c2.567-8.695,5.133-17.39,7.7-26.085c10.635,18.07,21.27,36.14,31.905,54.211c1.663,2.825,3.325,5.65,4.988,8.475
						c1.247,2.119,4.628,1.488,4.954-0.98c4.052-30.673,8.104-61.347,12.156-92.02c0.194-1.467,0.388-2.935,0.582-4.402
						c6.835,13.648,13.67,27.297,20.505,40.945c0.475,0.948,1.723,1.533,2.828,1.285c13.171-2.955,26.342-5.909,39.513-8.864
						C383.751,171.631,382.807,166.793,379.511,167.532z"/>
				</g>
			</g>
		</g>
		<g>
			<g>
				<path style="fill:#3B455A;" d="M753.128,164.665L753.128,164.665c-0.253,0.542-0.898,0.777-1.44,0.523l-42.211-19.703
					c-0.542-0.253-0.776-0.898-0.523-1.44l0,0c0.253-0.542,0.898-0.777,1.44-0.523l42.211,19.703
					C753.147,163.478,753.381,164.123,753.128,164.665z"/>
			</g>
			<g>
				<path style="fill:#8EC3CB;" d="M760.62,165.023l-2.357,5.049l-22.53-10.516c-1.394-0.651-1.997-2.309-1.346-3.703l0,0
					c0.651-1.394,2.308-1.997,3.703-1.346L760.62,165.023z"/>
			</g>
			<g>
				<g>
					<g>
						<path style="fill:#474EBB;" d="M942.872,245.353l-3.206,6.112l-27.132-14.232l-9.697,18.486l27.132,14.232l-3.206,6.112
							c-1.296,2.47-0.344,5.523,2.126,6.818c2.47,1.296,5.523,0.344,6.818-2.126l16.109-30.71c1.296-2.47,0.344-5.523-2.126-6.818
							C947.22,241.931,944.168,242.883,942.872,245.353z"/>
					</g>
					<g style="opacity:0.12;">
						<polygon points="918.341,263.851 928.038,245.366 935.293,249.171 920.329,264.894 						"/>
					</g>
				</g>
				<g>
					<path style="fill:#3B455A;" d="M934.746,232.577l-23.076,43.991c-0.711,1.355-2.385,1.877-3.74,1.166l-10.666-5.595
						l25.649-48.898l10.666,5.595C934.935,229.547,935.457,231.222,934.746,232.577z"/>
				</g>
				<g>
					<g>
						<path style="fill:#8EC3CB;" d="M932.594,210.064c-2.261-1.006-4.919,0.04-6.069,2.232l-1.883,3.591
							c-1.172,2.235-3.935,3.096-6.17,1.924L795.127,153.11c-1.486-0.779-3.198-1.014-4.839-0.662l-35.308,7.566
							c-0.668,0.143-1.238,0.577-1.553,1.183l-3.655,7.019c-0.315,0.604-0.344,1.317-0.081,1.945l13.901,33.193
							c0.645,1.541,1.808,2.809,3.287,3.585l123.357,64.707c2.235,1.172,3.096,3.935,1.924,6.17l-1.884,3.591
							c-1.15,2.192-0.5,4.973,1.613,6.262c2.315,1.412,5.303,0.559,6.542-1.804l36.399-69.391
							C936.069,214.109,935.072,211.166,932.594,210.064z"/>
					</g>
					<g style="opacity:0.17;">
						<path style="fill:#DBE8EB;" d="M795.31,160.205c-1.418-0.744-3.008-1.049-4.495-0.864l-31.989,3.988
							c-0.605,0.075-1.101,0.398-1.352,0.881l-2.907,5.589c-0.25,0.481-0.231,1.071,0.052,1.609l14.943,28.459
							c0.694,1.321,1.845,2.449,3.257,3.189l117.679,61.728L795.31,160.205z"/>
					</g>
					<g>
						<g>
							<path style="fill:#3B455A;" d="M832.907,220.654l-8.227,15.685l-3.008-1.578l8.227-15.685
								c0.081-0.155,0.273-0.215,0.429-0.134l2.445,1.283C832.928,220.307,832.988,220.499,832.907,220.654z"/>
						</g>
						<g>
							<path style="fill:#3B455A;" d="M790.91,198.625l-8.227,15.685l-3.008-1.578l8.227-15.685
								c0.081-0.155,0.273-0.215,0.429-0.134l2.445,1.283C790.931,198.277,790.991,198.469,790.91,198.625z"/>
						</g>
						<g>
							<path style="fill:#3B455A;" d="M874.904,242.684l-8.227,15.685l-3.008-1.578l8.227-15.685
								c0.081-0.155,0.273-0.215,0.429-0.134l2.445,1.283C874.925,242.337,874.985,242.529,874.904,242.684z"/>
						</g>
						<g>
							<path style="fill:#3B455A;" d="M849.575,239.267l-4.167,7.945l-2.468-1.295l4.167-7.945c0.067-0.127,0.224-0.176,0.352-0.11
								l2.007,1.053C849.593,238.982,849.642,239.14,849.575,239.267z"/>
						</g>
						<g>
							<path style="fill:#3B455A;" d="M807.578,217.238l-4.168,7.945l-2.468-1.295l4.168-7.945c0.067-0.128,0.224-0.177,0.352-0.11
								l2.007,1.053C807.596,216.952,807.645,217.11,807.578,217.238z"/>
						</g>
					</g>
				</g>
			</g>
		</g>
		<g>
			<g>
				<g>
					<g>
						<g>
							<polygon style="fill:#CCD2D9;" points="412.651,516.975 407.454,588.089 390.246,705.824 377.015,705.824 368.659,597.189 
								364.957,509.296 							"/>
						</g>
					</g>
					<g>
						<g>
							<polygon style="fill:#3B455A;" points="377.092,704.249 377.092,711.403 391.4,718.557 398.554,711.403 391.4,704.249 
															"/>
						</g>
					</g>
				</g>
			</g>
			<g>
				<g>
					<g>
						<g>
							<polygon style="fill:#CCD2D9;" points="318.929,500.215 323.957,599.898 335.472,714.333 349.024,714.333 360.038,605.911 
								376.128,491.793 							"/>
						</g>
					</g>
					<g>
						<g>
							<polygon style="fill:#3B455A;" points="348.946,712.72 348.946,720.047 334.291,727.375 326.963,720.047 334.291,712.72 
															"/>
						</g>
					</g>
				</g>
			</g>
			<g>
				<g>
					<g>
						<path style="fill:#EFBFA5;" d="M365.117,340.389c-4.623-0.452-9.246-0.904-13.869-1.356c-0.05-3.704,0.197-7.412,0.737-11.077
							c-3.855-1.349-8.309-3.375-8.986-7.402c-0.213-1.269,0.004-2.565,0.222-3.833c0.898-5.241,1.797-10.483,2.695-15.724
							c0.311-1.813,0.641-3.679,1.625-5.233c1.726-2.727,5.081-3.924,8.26-4.48c8.113-1.42,16.957,0.326,23.256,5.632
							c1.676,1.412,3.193,3.111,3.934,5.173c1.143,3.181,0.296,6.692-0.558,9.962c-0.788,3.018-1.576,6.036-2.365,9.055
							c-0.906,3.472-2.217,7.418-5.559,8.724c-1.774,0.693-3.871,0.494-5.477,1.519C366.2,333.155,366.587,337.369,365.117,340.389z
							"/>
					</g>
				</g>
				<g>
					<g>
						<path style="fill:#3B455A;" d="M397.579,286.805c0.407-4.285,0.624-7.816-0.263-12.01c-0.519-2.456-3.659-10.19-2.704-12.373
							c-1.786,3.785-6.605,4.83-10.769,5.246c-15.605,1.558-33.018-2.3-47.365,5.709c-2.62,1.462-4.709,3.745-6.336,6.266
							c-5.637,8.733-5.652,20.764-0.037,29.511c1.26,1.962,2.767,3.756,4.35,5.468c3.277,3.544,7.197,7.922,11.7,9.231
							c0.102-4.027-3.583-16.719-0.494-20.024c4.336-4.638,12.22-3.734,17.854-2.932c7.234,1.03,14.265,0.964,21.567,0.114
							c2.35-0.274,4.735-0.557,6.918-1.469c5.224-2.182,5.04-7.035,5.509-11.991C397.531,287.311,397.555,287.062,397.579,286.805z"
							/>
					</g>
				</g>
			</g>
			<g>
				<g>
					<g>
						<g>
							<polygon style="fill:#EFBFA5;" points="273.432,280.794 271.749,272.184 276.17,265.834 275.3,264.214 273.262,265.204 
								275.422,258.884 273.501,253.814 266.526,251.973 259.672,254.902 258.578,262.022 261.688,270.003 263.481,281.889 							
								"/>
						</g>
					</g>
				</g>
				<g>
					<g>
						<polygon style="fill:#EBB044;" points="274.53,274.719 261.31,273.893 267.212,346.025 323.335,375.707 336.266,340.674 
							291.897,320.266 						"/>
					</g>
				</g>
			</g>
			<g>
				<g>
					<g>
						<g>
							<polygon style="fill:#EFBFA5;" points="425.964,249.45 426.413,240.689 421.14,235.027 421.772,233.3 423.929,233.992 
								420.898,228.04 422.084,222.751 428.729,219.942 435.928,221.874 438.017,228.768 436.065,237.109 435.969,249.129 							
								"/>
						</g>
					</g>
				</g>
				<g>
					<g>
						<polygon style="fill:#EBB044;" points="424.018,243.591 436.989,240.906 438.017,290.81 432.92,329.38 399.751,378.06 
							372.595,338.771 404.125,315.6 						"/>
					</g>
				</g>
			</g>
			<g>
				<g>
					<polygon style="fill:#EBB044;" points="376.099,336.822 332.281,338.678 310.163,422.867 291.897,539.579 432.92,543.008 
						399.751,378.06 					"/>
				</g>
			</g>
		</g>
		<g>
			<g>
				<g>
					<g>
						<polygon style="fill:#C1796B;" points="593.399,306.703 591.788,298.289 596.128,292.106 595.284,290.521 593.291,291.48 
							595.423,285.317 593.566,280.36 586.762,278.536 580.06,281.371 578.965,288.319 581.972,296.123 583.679,307.736 						"/>
					</g>
				</g>
				<g>
					<polygon style="fill:#474EBB;" points="593.846,297.874 580.608,309.124 582.487,366.894 604.753,382.403 647.305,376.951 
						641.628,340.389 606.086,347.235 					"/>
				</g>
			</g>
			<g>
				<g>
					<g>
						<polygon style="fill:#3B455A;" points="729.466,700.523 731.13,708.157 717.942,719.029 708.852,713.013 714.614,703.76 
							727.802,692.889 						"/>
					</g>
					<g>
						<polygon style="fill:#474EBB;" points="683.345,465.786 698.061,499.721 699.449,595.197 729.707,697.893 715.637,704.133 
							653.891,584.887 646.863,547.118 644.07,467.573 						"/>
					</g>
				</g>
				<g>
					<g>
						<polygon style="fill:#474EBB;" points="612.096,473.392 610.939,573.45 629.794,702.46 644.293,702.46 653.45,583.421 
							673.289,464.381 						"/>
					</g>
					<g>
						<polygon style="fill:#3A332D;" points="644.209,700.735 644.209,708.574 628.531,716.413 620.692,708.574 628.531,700.735 
													"/>
					</g>
				</g>
			</g>
			<g>
				<path style="fill:#474EBB;" d="M640.647,337.904l38.512-1.426c0,0,23.039,20.215,34.946,72.745
					c12.124,53.489-2.239,130.491-2.239,130.491s-103.323-13.771-120.265-15.898l25.847-105.61L640.647,337.904z"/>
			</g>
			<g>
				<g>
					<path style="fill:#C1796B;" d="M654.448,341.838c4.497-0.44,8.995-0.88,13.492-1.319c0.048-3.603-0.191-7.211-0.717-10.776
						c3.75-1.313,8.083-3.283,8.742-7.201c0.207-1.234-0.004-2.496-0.216-3.729c-0.874-5.099-1.748-10.198-2.622-15.297
						c-0.302-1.764-0.624-3.579-1.581-5.091c-1.679-2.653-4.943-3.817-8.035-4.358c-7.892-1.381-16.496,0.318-22.624,5.479
						c-1.631,1.374-3.106,3.026-3.827,5.033c-1.112,3.094-0.288,6.51,0.543,9.691c0.767,2.936,1.534,5.872,2.3,8.809
						c0.882,3.377,2.156,7.217,5.407,8.487c1.726,0.674,3.765,0.481,5.328,1.478C653.395,334.801,653.018,338.9,654.448,341.838z"/>
				</g>
				<g>
					<path style="fill:#3B455A;" d="M610.51,290.878c-0.088-3.496,0.404-7.032,1.102-10.22c1.2-5.477,7.662-7.939,13.256-8.327
						c12.081-0.838,23.74-6.315,35.538-2.088c6.744,2.417,15.801,2.996,21.904,6.403c2.548,1.423,4.58,3.643,6.163,6.095
						c5.484,8.496,5.499,20.199,0.036,28.708c-1.226,1.909-2.692,3.653-4.232,5.319c-3.188,3.448-7.001,7.706-11.382,8.98
						c-0.099-3.917,3.486-16.264,0.482-19.479c-4.767-5.101-15.564-3.338-21.488-2.092c-6.462,1.359-12.226,5.926-18.632,6.895
						c-4.609,0.697-10.488-1.571-14.404-3.958C612.717,303.375,610.668,297.194,610.51,290.878z"/>
				</g>
			</g>
			<g>
				<path style="fill:#FFFFFF;" d="M651.269,342.665l-40.487,161.948l-3.319,21.239l50.443,6.637c0,0-1.991-77.551-1.328-87.891
					c0.664-10.34,8.145-32.704,9.292-56.8c0.664-13.938,5.091-38.973,1.991-47.124L651.269,342.665z"/>
			</g>
		</g>
		<g>
			<g>
				<polygon style="fill:#3B455A;" points="116.527,705.865 116.319,708.034 115.627,715.233 101.053,721.476 94.804,713.8 
					102.437,707.079 103.141,706.777 103.226,707.673 				"/>
			</g>
			<g>
				<path style="fill:#C1796B;" d="M117.268,705.765l-0.741,0.101h-0.777l-12.524,1.807L91.603,585.254l-1.421-5.741
					c10.903,0.159,23.86,0.322,36.916,0.425L117.268,705.765z"/>
			</g>
			<g>
				<path style="fill:#C1796B;" d="M175.545,579.875l-2.683,31.809l-26.906,82.471l-13.145-1.747l-0.214,1.612l-0.075-0.01
					l9.687-84.991l-8.295-29.032C149.174,580.08,164.097,580.077,175.545,579.875z"/>
			</g>
			<g>
				<polygon style="fill:#3B455A;" points="145.957,694.155 146.785,694.265 152.798,702.518 144.838,708.913 131.838,699.732 
					132.598,694.02 145.444,695.727 				"/>
			</g>
			<g>
				<polygon style="fill:#3E3D3B;" points="145.957,694.155 145.444,695.727 132.598,694.02 132.812,692.408 				"/>
			</g>
			<g>
				<path style="fill:#8EC3CB;" d="M84.372,394.919c-1.689,7.958-7.988,13.796-14.138,19.323
					c4.538-11.638,9.246-21.896,13.773-30.754C84.821,387.294,85.184,391.096,84.372,394.919z"/>
			</g>
			<g>
				<path style="fill:#8EC3CB;" d="M61.581,579.032c0,0,11.886,0.236,28.602,0.481c10.903,0.159,23.86,0.322,36.916,0.425
					c2.273,0.018,4.548,0.034,6.816,0.048c15.259,0.094,30.182,0.091,41.63-0.111c8.65-0.152,15.317-0.419,18.641-0.842
					L166.275,434.65l-0.109-0.446l-7.425-30.224l-10.826-44.067l-26.988-12.861c-2.876-0.461-5.472-1.77-7.702-3.67l-0.979-0.467
					c0.313,1.238,0.693,2.393,1.148,3.427c0.186,0.423,0.384,0.827,0.594,1.21c2.251,4.103,5.732,7.956,5.645,12.635
					c-0.016,0.869-0.162,1.718-0.378,2.556c-0.393,1.523-1.025,3.005-1.589,4.481c-5.99,15.689,0.596,33.401,10.338,46.657
					c4.99,6.79,11.579,12.676,14.422,20.608c0.488,1.361,0.794,2.816,0.931,4.297c0.662,7.147-2.704,14.932-9.586,16.096
					c-1.62,0.274-3.341,0.167-4.831,0.86c-5.086,2.363-2.887,10.702-6.652,14.859c-2.432,2.686-6.545,2.78-10.166,2.676
					c-1.185-0.034-2.438-0.088-3.431-0.736c-2.116-1.38-1.912-4.455-2.536-6.903c-1.13-4.436-5.559-7.348-10.03-8.327
					c-4.471-0.98-9.113-0.46-13.69-0.452c-5.719,0.009-11.566-0.839-16.609-3.535c-1.98-1.058-3.818-2.438-5.383-4.061
					C51.424,504.414,61.581,579.032,61.581,579.032z"/>
			</g>
			<g>
				<path style="fill:#C1796B;" d="M112.111,342.353c-2.53-10.959,0.212-28.274,7.539-34.735c2.881-2.54,6.173-3.001,9.844-3.028
					c1.735-0.013,2.315,0.436,3.21,0.278c2.731,3.513,4.561,7.8,4.225,11.854c-0.283,3.412-2.248,6.014-2.406,9.678
					c-0.312,6.67-9.85,13.367-6.186,19.991c-2.618,0.854-5.103,1.031-7.409,0.661l-7.702-3.67
					C112.843,343.055,112.471,342.712,112.111,342.353z"/>
			</g>
			<g>
				<path style="fill:#E1CFB5;" d="M120.928,347.052c-2.876-0.461-5.472-1.77-7.702-3.67L120.928,347.052z"/>
			</g>
			<g>
				<path style="fill:#C1796B;" d="M134.524,326.4c0.157-3.665,2.123-6.266,2.406-9.678c0.336-4.054-1.494-8.341-4.225-11.854
					c0.402-0.07,0.867-0.263,1.529-0.675c1.314-0.818,2.486-2.959,3.102-4.705c3.405,2.154,5.882,6.043,6.565,11.965
					c0.742,6.438,0.73,13.23-1.476,19.672c-2.207,6.442-6.916,12.499-13.026,14.89c-0.356,0.139-0.709,0.262-1.061,0.376
					C124.673,339.766,134.212,333.07,134.524,326.4z"/>
			</g>
			<g>
				<path style="fill:#3B455A;" d="M55.671,440.233c0.584,3.424,2.348,6.52,4.771,9.03c0.193-1.181,0.395-2.353,0.606-3.516
					c-0.211,1.162-0.413,2.335-0.606,3.516c1.565,1.622,3.403,3.002,5.383,4.061c5.043,2.696,10.89,3.544,16.609,3.535
					c4.577-0.007,9.219-0.528,13.69,0.452c4.471,0.98,8.9,3.892,10.03,8.328c0.624,2.448,0.42,5.522,2.536,6.903
					c0.993,0.648,2.246,0.702,3.431,0.736c3.621,0.104,7.735,0.009,10.166-2.676c3.765-4.157,1.566-12.496,6.652-14.859
					c1.49-0.693,3.211-0.586,4.831-0.86c6.882-1.164,10.248-8.949,9.586-16.096c-0.137-1.481-0.443-2.935-0.931-4.297
					c-2.843-7.932-9.432-13.819-14.422-20.608c-9.741-13.257-16.328-30.968-10.338-46.657c0.564-1.476,1.196-2.958,1.589-4.481
					c0.216-0.837,0.362-1.687,0.379-2.556c0.087-4.679-3.394-8.532-5.645-12.635c-0.21-0.383-0.408-0.787-0.594-1.21
					c-0.455-1.035-0.835-2.189-1.147-3.428c-0.047-0.186-0.092-0.373-0.136-0.562c-6.909-6.891-9.678-19.693-5.131-29.259
					c0.259-0.544,0.533-1.076,0.823-1.596c-0.289,0.52-0.564,1.052-0.823,1.596c-4.548,9.567-1.779,22.368,5.131,29.259
					c-2.53-10.959,0.212-28.274,7.539-34.735c2.881-2.54,6.173-3.001,9.844-3.028c1.735-0.013,2.315,0.436,3.21,0.278
					c0.402-0.07,0.867-0.263,1.529-0.675c1.315-0.818,2.486-2.959,3.102-4.704c3.405,2.154,5.882,6.043,6.565,11.965
					c0.742,6.438,0.731,13.23-1.476,19.672c-2.206,6.442-6.916,12.499-13.026,14.89c-0.356,0.139-0.709,0.262-1.06,0.376
					c0.304,0.549,0.687,1.098,1.185,1.646c3.345,3.68,8.714,4.535,13.646,5.172c0.598,0.077,1.226,0.151,1.788-0.068
					c0.925-0.36,1.401-1.431,1.409-2.424c0.007-0.993-0.349-1.946-0.623-2.901c-2.866-9.981,2.212-21.382,3.059-31.444
					c0.845-10.043-1.228-20.971-9.289-27.761c-1.368,0.375-2.696,0.89-3.964,1.525c-0.126-0.168-0.256-0.333-0.39-0.494
					c-11.668-14.011-28.143-2.033-37.005,8.666c-7.305,8.82-13.395,18.947-16.188,30.139c-2.612,10.467-3.484,25.849-2.379,36.548
					c0.645,6.247,3.115,12.376,4.421,18.493c0.813,3.806,1.175,7.608,0.364,11.431c-1.689,7.958-7.988,13.796-14.138,19.323
					c-0.56,1.436-1.117,2.892-1.672,4.368c-0.554,1.477-1.105,2.974-1.652,4.494c-0.352,0.979-0.693,1.974-1.024,2.985
					c0.33-1.011,0.671-2.006,1.024-2.985c0.547-1.52,1.098-3.018,1.652-4.494c0.554-1.477,1.112-2.933,1.672-4.368
					c-0.851,0.764-1.699,1.523-2.531,2.28C60.853,422.754,54.114,431.103,55.671,440.233z M117.023,301.55
					c0.909-0.602,1.841-1.142,2.787-1.619C118.864,300.408,117.932,300.948,117.023,301.55z"/>
			</g>
		</g>
		<g>
			<g>
				<g>
					<g>
						<polygon style="fill:#EFBFA5;" points="801.79,522.058 858.662,501.143 846.94,600.773 853.732,686.728 854.333,692.196 
							854.333,692.196 854.333,692.196 843.159,692.49 843.159,692.49 843.159,692.49 817.106,612.027 803.846,530.452 
							803.846,530.452 						"/>
					</g>
					<g>
						<polygon style="fill:#3B455A;" points="843.159,692.49 854.794,692.196 857.765,702.014 857.472,702.101 857.546,702.109 
							838.31,713.507 829.164,714.524 828.001,704.071 830.472,702.261 						"/>
					</g>
				</g>
				<g>
					<g>
						<polygon style="fill:#EFBFA5;" points="763.05,523.769 780.519,698.358 791.765,700.011 802.686,602.756 822.291,511.023 
													"/>
					</g>
					<g>
						<polygon style="fill:#3B455A;" points="780.148,698.315 765.237,706.77 766.634,713.806 793.277,709.79 791.709,699.653 
													"/>
					</g>
				</g>
				<g>
					<g>
						<g>
							<path style="fill:#D34E4E;" d="M736.386,566.61c-3.599-2.499-3.676-6.85-3.669-11.207c0.012-8.183,1.483-16.547,3.359-24.499
								c3.571-14.917,7.62-32.884,9.4-52.214c4.601-49.958,20.378-83.482,20.378-83.482l5.091-13.575
								c1.012-1.765,2.061-3.511,3.158-5.231c6.358-9.977,17.398-26.932,29.204-29.707c0.247-0.058,0.495-0.115,0.744-0.169
								c12.413-2.724,28.32-1.46,39.538,4.575c2.128,1.145,4.021,2.67,5.901,4.186c5.486,4.425,9.959,6.821,12.324,13.564
								c2.053,5.855,2.531,12.243,3.663,18.31c2.3,12.327,3.672,24.801,5.509,37.199c3.444,23.25,6.369,46.575,10.053,69.789
								c1.896,11.947,3.806,23.917,4.702,35.989c0.792,10.674,10.422,21.512,15.833,31.078c1.883,3.329-25.16,11.954-27.584,12.519
								c-11.218,2.611-23.151,1.944-34.715,1.997c-25.342,0.115-50.689-0.667-75.975-2.343c-8.403-0.557-18.758-2.161-26.215-6.345
								C736.837,566.907,736.605,566.762,736.386,566.61z"/>
						</g>
					</g>
					<g>
						<path style="fill:#FFFFFF;" d="M817.97,345.16c0,0,14.275-3.854,16.247,28.356c1.972,32.21,5.259,113.72,9.86,136.069
							c4.601,22.35,11.503,66.187,11.503,66.187l-43.713,1.519l-49.958-3.944c0,0,17.091-31.552,19.72-53.902
							c2.629-22.35-1.972-106.489,9.203-138.041S804.352,345.727,817.97,345.16z"/>
					</g>
					<g>
						<g>
							<polygon style="fill:#D34E4E;" points="753.364,416.9 730.566,413.384 730.566,393.745 785.574,351.823 803.322,346.565 
								794.776,369.572 							"/>
						</g>
					</g>
				</g>
				<g>
					<g>
						<g>
							<path style="fill:#3B455A;" d="M798.06,319.641c-2.16,6.485,0.966,13.401,3.71,19.311c2.434,5.241,3.28,8.691-2.898,10.105
								c-3.481,0.797-9.657,2.284-12.71-0.381c-2.311-2.019-1.012-8.254,0.112-10.731c0.859-1.891,3.132-2.852,3.94-4.766
								c0.333-0.789,0.381-1.665,0.393-2.521c0.048-3.497-0.435-7-1.429-10.353c-0.675-2.277-1.59-4.513-1.793-6.879
								c-0.296-3.43,2.13-7.428,3.405-10.58c2.372-5.864,10.626-13.73,17.538-9.127c1.574,1.048,2.49,2.82,3.256,4.549
								c0.457,1.032,0.892,2.11,0.906,3.239c0.053,4.502-4.058,5.262-6.897,7.405C802.092,311.555,799.438,315.502,798.06,319.641z"
								/>
						</g>
						<g>
							<path style="fill:#EFBFA5;" d="M811.206,344.948c-5.995-1.412-10.683-6.446-12.935-12.179
								c-2.252-5.732-2.37-12.09-1.747-18.217c2.073-20.391,27.439-19.082,36.029-3.454
								C840.038,324.718,828.638,349.054,811.206,344.948z"/>
						</g>
					</g>
					<g>
						<path style="fill:#EFBFA5;" d="M811.212,342.75c0.101,2.323,0.201,4.646,0.302,6.969c0.015,0.34,0.043,0.713,0.281,0.957
							c0.271,0.277,0.708,0.282,1.095,0.269c1.893-0.066,3.786-0.131,5.679-0.196c0.938-0.032,1.914-0.075,2.741-0.518
							c1.811-0.972,2.185-3.426,1.896-5.46c-0.289-2.034-1.019-4.085-0.587-6.094c-3.909,1.926-7.621-2.426-11.53-0.5
							L811.212,342.75z"/>
					</g>
				</g>
				<g>
					<path style="fill:#3B455A;" d="M819.393,279.199c6.66,2.263,10.931,8.999,17.431,11.69c3.728,1.543,8.139,1.739,11.18,4.39
						c6.816,5.94,1.338,18.405,6.937,25.503c1.164,1.476,2.734,2.592,3.903,4.064c2.521,3.175,2.851,7.509,3.076,11.557
						c0.051,0.911,0.06,1.903-0.098,2.819c-0.876,9.349-14.448,8.754-19.839,8.155c-5.916-0.657-3.944-3.944-3.944-3.944
						l0.215-0.263c0.568-3.796-0.993-7.844-3.976-10.262c-1.107-0.897-2.416-1.612-3.196-2.804c-1.752-2.676-0.08-6.22-0.337-9.408
						c-1.037-12.837-22.582-10.086-28.662-19.226C794.628,290.264,806.814,274.926,819.393,279.199z"/>
				</g>
			</g>
		</g>
		<g>
			<g>
				<g>
					<polygon style="fill:#EFBFA5;" points="872.354,261.611 864.107,250.071 859.021,253.381 862.919,262.534 859.787,262.983 
						868.048,271.998 873.799,269.271 					"/>
				</g>
			</g>
			<g>
				<g>
					<polygon style="fill:#D34E4E;" points="837.44,360.082 880.583,325.235 864.57,271.998 880.482,265.519 910.147,335.719 
						866.945,390.221 					"/>
				</g>
			</g>
		</g>
		<g>
			<polygon style="fill:#EFBFA5;" points="778.505,420.171 791.39,418.041 790.719,412.494 781.573,411.999 782.473,409.229 
				771.669,412.395 771.588,418.255 			"/>
		</g>
		<g>
			<g>
				<polygon style="fill:#D34E4E;" points="743.501,399.33 743.434,400.451 774.968,410.096 774.212,421.716 730.566,410.523 				
					"/>
			</g>
		</g>
		<g>
			<g>
				<g>
					<g>
						<g>
							<g>
								<path style="fill:#D34E4E;" d="M671.723,720.2H546.648c-9.879,0-17.888-8.009-17.888-17.888v-84.794
									c0-9.879,8.009-17.888,17.888-17.888h125.075c9.879,0,17.888,8.009,17.888,17.888v84.794
									C689.611,712.191,681.602,720.2,671.723,720.2z"/>
							</g>
							<g>
								<path style="fill:#D34E4E;" d="M644.409,593.075c0-7.706,0-15.413,0-23.119c0-2.089-1.987-3.864-4.337-3.864
									c-18.267,0-36.534,0-54.801,0c-2.613,0-5.226,0-7.839,0c-2.345,0-4.337,1.77-4.337,3.864c0,7.688,0,15.376,0,23.063
									c-3.506,0.102-6.318,3.019-6.318,6.611l0,0h21.251l0,0c0-3.572-2.781-6.475-6.259-6.608c0-6.401,0-12.802,0-19.202
									c16.821,0,33.643,0,50.464,0c1.167,0,2.334,0,3.502,0c0,6.396,0,12.793,0,19.19h-0.434c-3.593,0-6.506,2.964-6.506,6.62l0,0
									h21.251l0,0C650.047,596.273,647.591,593.507,644.409,593.075z"/>
							</g>
						</g>
					</g>
					<g>
						<path style="fill:#FFFFFF;" d="M646.465,647.795c-8.709,0-17.419,0-26.128,0c-0.816,0-1.632,0-2.447,0
							c0-6.455,0-12.909,0-19.364c0-3.238,0-6.477,0-9.715c0-1.079-0.899-1.996-1.961-1.996c-5.413,0-10.826,0-16.239,0
							c-1.06,0-1.961,0.914-1.961,1.996c0,8.863,0,17.726,0,26.589c0,0.83,0,1.66,0,2.491c-6.343,0-12.685,0-19.028,0
							c-3.182,0-6.365,0-9.547,0c-1.06,0-1.962,0.914-1.962,1.996c0,5.508,0,11.016,0,16.525c0,0.612,0.224,1.077,0.563,1.397
							c0.316,0.36,0.781,0.599,1.399,0.599c8.709,0,17.419,0,26.128,0c0.816,0,1.632,0,2.447,0c0,6.454,0,12.909,0,19.364
							c0,3.238,0,6.477,0,9.715c0,1.079,0.899,1.996,1.961,1.996c5.413,0,10.826,0,16.239,0c0.601,0,1.058-0.228,1.373-0.573
							c0.354-0.321,0.589-0.795,0.589-1.423c0-8.863,0-17.726,0-26.589c0-0.83,0-1.66,0-2.49c6.343,0,12.685,0,19.028,0
							c3.182,0,6.365,0,9.547,0c1.06,0,1.961-0.915,1.961-1.996c0-5.508,0-11.016,0-16.525
							C648.427,648.712,647.528,647.795,646.465,647.795z"/>
					</g>
				</g>
			</g>
		</g>
		<g>
			<g>
				<g>
					<g>
						<g>
							<path style="fill:#3B455A;" d="M320.11,397.634c4.413,20.347,24.425,33.274,44.697,28.875
								c20.271-4.4,33.126-24.46,28.713-44.806c-4.414-20.347-24.425-33.275-44.697-28.875
								C328.551,357.227,315.696,377.287,320.11,397.634z"/>
						</g>
						<g>
							<path style="fill:#CCD2D9;" d="M331.585,395.143c3.034,13.985,16.789,22.872,30.723,19.848
								c13.933-3.024,22.77-16.813,19.736-30.798c-3.034-13.985-16.789-22.872-30.723-19.848
								C337.388,367.369,328.551,381.158,331.585,395.143z"/>
						</g>
						<g>
							
								<rect x="367.849" y="403.656" transform="matrix(-0.9772 0.2121 -0.2121 -0.9772 835.6418 837.8237)" style="fill:#CCD2D9;" width="10.065" height="120.159"/>
						</g>
						<g>
							<path style="fill:#3B455A;" d="M348.575,392.405c1.039,4.787,5.747,7.829,10.517,6.794c4.769-1.035,7.794-5.756,6.756-10.543
								c-1.039-4.788-5.747-7.829-10.516-6.794C350.563,382.897,347.537,387.617,348.575,392.405z"/>
						</g>
						<g style="opacity:0.13;">
							<path d="M353.607,398.622l6.209,28.624c0,0-5.771,0.319-9.04-0.374l1.265-29.157L353.607,398.622z"/>
						</g>
					</g>
					<g>
						<g>
							<path style="fill:#7FC5A3;" d="M552.976,489.367c-2.185,0.388-4.057,2.272-6.48,2.04c0.541,3.453-0.684-4.567-0.346-1.077
								c0.451,4.664,0.736,9.347,0.847,14.043c0.063,2.661,0.069,5.325,0.014,7.993c-0.009,0.46-0.106,2.959-0.024,1.07
								c-0.03,0.703-0.055,1.406-0.09,2.108c-0.066,1.356-0.15,2.712-0.251,4.068c-0.439,5.9-1.208,11.808-2.411,17.689
								c-0.612,2.988-1.336,5.968-2.192,8.933c-0.449,1.553-0.934,3.102-1.459,4.645c-0.224,0.659-0.463,1.316-0.695,1.974
								c-0.043,0.122-0.119,0.324-0.179,0.481c-0.048,0.124-0.095,0.248-0.145,0.372c-2.297,5.686-5.076,11.268-8.734,16.587
								c-0.447,0.649-0.913,1.291-1.38,1.932c0.485-0.673-0.743,0.956-0.992,1.263c-0.902,1.113-1.846,2.208-2.831,3.28
								c-2.057,2.238-4.312,4.341-6.709,6.367c0.455-0.398-1.442,1.118-1.795,1.377c-0.686,0.502-1.385,0.994-2.096,1.475
								c-1.289,0.871-2.617,1.706-3.982,2.501c-0.92,0.536-1.856,1.054-2.807,1.553c-0.319,0.168-0.647,0.326-0.964,0.497
								c-0.034,0.018-0.063,0.034-0.093,0.05c-0.031,0.014-0.062,0.027-0.097,0.042c-1.544,0.676-3.06,1.376-4.641,1.996
								c-1.986,0.78-4.015,1.484-6.075,2.114c-0.867,0.266-1.74,0.517-2.617,0.756c-0.392,0.107-0.787,0.209-1.181,0.312
								c-0.028,0.006-0.054,0.012-0.078,0.017c-4.227,0.881-8.417,1.691-12.727,2.124c-1.23,0.123-2.459,0.207-3.69,0.295
								c-0.079,0.006-0.159,0.009-0.238,0.013c0.015,0-0.046,0.003-0.147,0.008c-0.276,0.015-0.551,0.027-0.825,0.041
								c0.199-0.01,0.361-0.019,0.494-0.026c-0.175,0.007-0.359,0.013-0.482,0.014c-1.852,0.013-3.696,0.014-5.537-0.076
								c-1.973-0.096-3.932-0.267-5.87-0.513c-0.817-0.104-1.623-0.239-2.437-0.351c-0.02-0.003-0.036-0.005-0.055-0.008
								c-0.039-0.009-0.078-0.018-0.123-0.028c-0.345-0.078-0.702-0.138-1.05-0.21c-3.457-0.719-6.805-1.686-10.004-2.87
								c-0.481-0.178-3.443-1.439-1.581-0.602c-0.687-0.309-1.382-0.607-2.061-0.925c-1.44-0.674-2.844-1.39-4.211-2.145
								c-2.77-1.53-5.362-3.222-7.847-5.012c-0.194-0.144-0.452-0.336-0.57-0.43c-0.381-0.303-0.767-0.601-1.145-0.906
								c-0.569-0.459-1.131-0.925-1.684-1.396c-1.178-1.003-2.319-2.031-3.427-3.082c-2.368-2.247-4.582-4.594-6.66-7.014
								c-1.106-1.287-2.173-2.596-3.206-3.922c-0.29-0.374-1.352-1.803-0.757-0.987c-0.424-0.581-0.849-1.162-1.264-1.747
								c-7.271-10.247-12.751-21.306-17.15-32.605c-1.01-2.594-1.961-5.206-2.856-7.831c-0.236-0.691-0.464-1.385-0.696-2.078
								c-0.023-0.065-0.04-0.119-0.057-0.167c-0.025-0.081-0.058-0.184-0.1-0.318c-0.375-1.197-0.748-2.394-1.107-3.594
								c-1.237-4.146-2.346-8.322-3.323-12.524c-0.899-3.863-1.747-7.753-2.305-11.675c-1.097-7.723-16.707-5.504-15.612,2.207
								c0.039,0.272,0.089,0.543,0.125,0.816c0.789,5.896,2.301,11.745,3.84,17.501c2.937,10.989,6.648,21.848,11.435,32.344
								c10.443,22.902,26.928,47.116,56.281,57.73c30.742,11.116,71.181,1.312,92.667-20.784
								c20.301-20.879,25.26-48.159,26.027-72.651c0.37-11.804,1.598-12.3-0.404-23.933
								C559.416,489.68,555.82,488.862,552.976,489.367z M492.617,595.798C493.704,595.517,493.022,595.704,492.617,595.798
								L492.617,595.798z M539.643,553.513C539.62,553.57,539.617,553.579,539.643,553.513L539.643,553.513z"/>
						</g>
					</g>
					<g>
						<g>
							<path style="fill:#CCD2D9;" d="M555.729,251.029c11.24-1.883,22.479-3.767,33.718-5.65c2.398-0.402,4.778,1.297,5.182,3.71
								c4.302,25.683,8.603,51.367,12.904,77.05c0.607,3.623,1.214,7.246,1.821,10.869c0.96,5.731-7.912,7.227-8.873,1.487
								c-4.302-25.684-8.603-51.367-12.904-77.05c-0.359-2.139-0.717-4.277-1.075-6.416c-9.76,1.635-19.521,3.271-29.282,4.907
								C551.511,260.892,550.01,251.987,555.729,251.029z"/>
						</g>
						<g>
							<g>
								<path style="fill:#3B455A;" d="M545.171,266.243l10.238-1.716l-2.983-17.813l-10.239,1.716
									c-4.147,0.695-6.946,4.618-6.252,8.763l0.469,2.801C537.099,264.14,541.024,266.938,545.171,266.243z"/>
							</g>
							<g>
								<path style="fill:#CCD2D9;" d="M554.26,266.144l8.677-1.454c4.792-0.803,8.025-5.336,7.223-10.126l-0.542-3.237
									c-0.802-4.79-5.338-8.023-10.13-7.22l-8.675,1.454L554.26,266.144z"/>
							</g>
						</g>
					</g>
					<g>
						<g>
							<path style="fill:#CCD2D9;" d="M467.685,265.172c-11.239,1.883-22.479,3.767-33.719,5.65
								c-2.398,0.402-4.095,2.784-3.691,5.196c4.302,25.684,8.603,51.367,12.905,77.05c0.607,3.623,1.214,7.246,1.821,10.869
								c0.96,5.731,9.834,4.254,8.873-1.487c-4.302-25.683-8.603-51.367-12.904-77.05c-0.358-2.139-0.717-4.277-1.074-6.416
								c9.76-1.636,19.521-3.271,29.282-4.907C474.886,273.122,473.403,264.214,467.685,265.172z"/>
						</g>
						<g>
							<g>
								<path style="fill:#3B455A;" d="M482.625,276.113l-10.239,1.716l-2.984-17.813l10.238-1.715
									c4.147-0.695,8.072,2.102,8.766,6.247l0.469,2.802C489.57,271.496,486.771,275.419,482.625,276.113z"/>
							</g>
							<g>
								<path style="fill:#CCD2D9;" d="M473.998,278.983l-8.675,1.454c-4.792,0.803-9.328-2.43-10.13-7.22l-0.543-3.237
									c-0.802-4.789,2.432-9.323,7.224-10.126l8.677-1.454L473.998,278.983z"/>
							</g>
						</g>
					</g>
					<g style="opacity:0.13;">
						<path d="M546.53,498.365c0,0,0.637,5.522,1.068,11.927l15.022-9.679l-1.042-6.644L546.53,498.365z"/>
					</g>
					<g>
						<g>
							<path style="fill:#7FC5A3;" d="M612.547,337.186c3.659,16.014,5.304,32.693,5.861,49.075
								c0.989,29.057-1.683,61.359-18.9,85.828c-18.22,25.896-54.712,36.911-83.737,23.246
								c-27.714-13.048-44.539-42.041-55.722-69.383c-5.126-12.531-9.288-25.477-12.748-38.564
								c-1.812-6.856-3.606-13.821-4.739-20.831c-0.053-0.324-0.118-0.646-0.172-0.97c-1.54-9.169,12.655-11.563,14.197-2.379
								c0.784,4.664,1.833,9.294,2.925,13.892c1.189,5.002,2.497,9.976,3.921,14.916c0.412,1.43,0.839,2.856,1.266,4.282
								c0.566,1.888-0.335-1.036,0.177,0.578c0.261,0.825,0.519,1.652,0.783,2.477c1.006,3.13,2.06,6.243,3.168,9.338
								c4.825,13.478,10.626,26.687,18.017,38.961c0.471,0.781,0.951,1.556,1.431,2.331c-0.901-1.456,0.304,0.466,0.616,0.945
								c1.041,1.59,2.113,3.159,3.217,4.704c2.078,2.904,4.275,5.724,6.607,8.427c1.09,1.264,2.211,2.502,3.363,3.71
								c0.542,0.568,1.089,1.129,1.644,1.683c0.368,0.368,0.744,0.728,1.115,1.094c0.301,0.296,1.516,1.395,0.159,0.165
								c2.53,2.293,5.158,4.463,7.954,6.423c1.309,0.917,2.649,1.789,4.019,2.611c0.647,0.388,1.306,0.752,1.958,1.13
								c-1.768-1.023,1.041,0.519,1.495,0.739c3.022,1.454,6.166,2.653,9.394,3.56c0.324,0.092,0.658,0.167,0.98,0.266
								c1.673,0.508-1.558-0.286,0.165,0.045c0.756,0.145,1.506,0.318,2.265,0.454c1.797,0.322,3.61,0.554,5.431,0.699
								c1.698,0.135,3.392,0.163,5.095,0.176c0.446,0.003,1.748-0.078-0.01,0.014c0.368-0.019,0.739-0.028,1.108-0.056
								c1.126-0.086,2.249-0.166,3.371-0.293c3.932-0.448,7.728-1.345,11.552-2.326c0.344-0.088,1.361-0.438-0.205,0.072
								c0.447-0.146,0.895-0.291,1.34-0.443c0.79-0.271,1.574-0.556,2.353-0.857c1.85-0.716,3.667-1.521,5.438-2.416
								c1.41-0.712,2.754-1.519,4.127-2.298c1.543-0.875-1.272,0.915,0.168-0.107c0.279-0.198,0.57-0.381,0.851-0.575
								c0.841-0.578,1.665-1.178,2.473-1.8c1.2-0.923,2.363-1.894,3.487-2.908c0.621-0.56,1.229-1.133,1.825-1.718
								c0.358-0.352,2.536-2.711,1.172-1.167c2.209-2.501,4.266-5.107,6.109-7.893c0.832-1.258,1.623-2.543,2.376-3.85
								c0.235-0.408,1.504-2.804,0.593-1.03c0.464-0.904,0.927-1.808,1.367-2.726c2.995-6.256,5.163-12.839,6.881-19.552
								c0.087-0.341,0.167-0.684,0.25-1.026c-0.408,1.68-0.103,0.441-0.011,0.018c0.167-0.777,0.341-1.553,0.502-2.332
								c0.375-1.823,0.714-3.654,1.019-5.491c0.582-3.506,1.042-7.032,1.397-10.569c0.699-6.961,0.998-13.962,0.993-20.958
								c-0.001-1.608-0.017-3.216-0.05-4.824c-0.017-0.834-0.043-1.667-0.063-2.501c0.055,2.241-0.03-0.724-0.053-1.269
								c-0.134-3.165-0.323-6.328-0.565-9.487c-0.427-5.575-1.013-11.138-1.75-16.68c-0.861-6.47-2.057-12.854-3.242-19.267
								c-0.058-0.312-0.133-0.622-0.204-0.931c-0.869-3.808,2.231-7.699,5.905-8.314
								C608.286,330.575,611.675,333.367,612.547,337.186L612.547,337.186z"/>
						</g>
					</g>
				</g>
				<g>
					<g>
						<g>
							<path style="fill:#A0A2A5;" d="M481.908,612.899l-0.013-0.054c0.437-0.113,0.651-0.167,0.671-0.171l0.001,0l0.026-0.004
								l0.006,0.026c0.002,0.009,0.004,0.017-0.023,0.029v0.003c0,0-0.008,0.002-0.02,0.005
								C482.489,612.759,482.321,612.803,481.908,612.899z"/>
						</g>
						<g>
							<polygon style="fill:#A0A2A5;" points="535.73,564.537 535.678,564.516 535.7,564.463 535.751,564.484 							"/>
						</g>
						<g>
							<path style="fill:#A0A2A5;" d="M541.984,472.399l-0.005-0.056c0.134-0.014,0.219-0.02,0.25-0.021l0.003,0.056
								L541.984,472.399z"/>
						</g>
						<g>
							<path style="fill:#A0A2A5;" d="M556.089,475.619l-0.017-0.053c0.106-0.035,0.455-0.147,0.476-0.151l0.026-0.004l0.006,0.025
								c0.003,0.01,0.005,0.017-0.023,0.032v0.002c0,0-0.004,0.001-0.009,0.003C556.5,475.496,556.379,475.535,556.089,475.619z"/>
						</g>
						<g>
							<path style="fill:#A0A2A5;" d="M591.798,431.74L591.798,431.74L591.798,431.74l-0.055-0.014
								c0.001-0.002,0.001-0.004,0.002-0.007c0.001-0.006,0.003-0.012,0.004-0.018c0.02-0.076,0.045-0.185,0.081-0.332
								c0.004-0.018,0.009-0.036,0.013-0.054l0.05-0.207c0.001-0.004,0.002-0.008,0.003-0.012l0.055,0.013
								c-0.025,0.103-0.047,0.193-0.065,0.272C591.855,431.502,591.827,431.621,591.798,431.74z"/>
						</g>
						<g>
							<path style="fill:#A0A2A5;" d="M591.768,431.867l-0.055-0.011c0,0,0.003-0.017,0.011-0.048l0,0l0,0v0l0.055,0.014
								C591.77,431.852,591.768,431.866,591.768,431.867z"/>
						</g>
					</g>
					<g>
						<path style="fill:#A0A2A5;" d="M542.198,477.993l-0.002-0.056l0.036-0.002c0.239-0.011,0.338-0.016,0.354-0.016l0.002,0.056
							c-0.039,0.003-0.08,0.005-0.12,0.007C542.395,477.986,542.3,477.99,542.198,477.993L542.198,477.993L542.198,477.993z"/>
					</g>
				</g>
			</g>
		</g>
		<g>
			<g>
				<g>
					<g>
						
							<rect x="153.425" y="374.921" transform="matrix(0.9869 0.1613 -0.1613 0.9869 80.384 -31.1881)" style="fill:#3B455A;" width="157.762" height="209.276"/>
					</g>
					<g style="opacity:0.26;">
						<polygon style="fill:#040909;" points="150.654,563.132 152.984,563.513 289.787,590.221 318.096,394.306 311.407,395.089 
													"/>
					</g>
					<g>
						
							<rect x="161.569" y="381.601" transform="matrix(0.9869 0.1613 -0.1613 0.9869 80.2014 -31.2333)" style="fill:#F7F7F7;" width="141.849" height="193.621"/>
					</g>
					<g style="opacity:0.05;">
						<polygon points="177.462,370.574 278.153,387.029 163.531,454.81 						"/>
					</g>
					<g>
						<g style="opacity:0.12;">
							
								<rect x="216.999" y="381.82" transform="matrix(0.9869 0.1613 -0.1613 0.9869 65.2872 -34.9291)" width="61.606" height="5.749"/>
						</g>
						<g>
							<g>
								<path style="fill:#BEC6CC;" d="M269.006,367.628l-0.943-0.154l0.103-0.632c0.973-5.956-3.818-11.697-10.7-12.822
									l-9.065-1.481c-6.883-1.125-13.251,2.792-14.224,8.749l-0.103,0.632l-0.943-0.154c-6.883-1.125-13.251,2.792-14.224,8.749
									l-1.968,12.05l60.799,9.936l1.968-12.05C280.679,374.493,275.888,368.753,269.006,367.628z M259.037,366.254l-16.019-2.618
									c-1.637-0.268-2.759-1.818-2.493-3.446c0.266-1.628,1.823-2.74,3.46-2.473l16.019,2.618
									c1.637,0.268,2.759,1.818,2.494,3.446C262.232,365.408,260.674,366.521,259.037,366.254z"/>
							</g>
						</g>
					</g>
				</g>
				<g style="opacity:0.47;">
					<g>
						<path style="fill:#C0C4C9;" d="M208.493,431.234c-6.851-1.12-13.702-2.239-20.554-3.359c-0.579-0.095-1.15,0.313-1.244,0.889
							c-1.113,6.81-2.225,13.621-3.337,20.431c-0.094,0.575,0.317,1.144,0.897,1.239c6.851,1.12,13.702,2.239,20.553,3.359
							c0.314,0.051,0.572-0.023,0.77-0.166c0.015-0.008,0.028-0.019,0.042-0.028c0.008-0.006,0.016-0.012,0.016-0.012
							c0.209-0.148,0.365-0.368,0.416-0.684c1.113-6.811,2.225-13.621,3.338-20.431
							C209.483,431.897,209.073,431.328,208.493,431.234z M204.085,451.49c-6.137-1.003-12.275-2.006-18.412-3.009
							c0.997-6.101,1.993-12.202,2.99-18.303c6.138,1.003,12.275,2.006,18.413,3.009
							C206.078,439.288,205.081,445.389,204.085,451.49z"/>
					</g>
					<g>
						<path style="fill:#C0C4C9;" d="M202.322,469.011c-6.851-1.12-13.702-2.239-20.553-3.359c-0.579-0.095-1.15,0.313-1.244,0.889
							c-1.112,6.811-2.225,13.621-3.337,20.432c-0.094,0.575,0.317,1.144,0.897,1.239c6.851,1.12,13.702,2.239,20.553,3.359
							c0.314,0.051,0.572-0.023,0.771-0.166c0.015-0.009,0.028-0.019,0.042-0.028c0.008-0.006,0.016-0.012,0.023-0.018
							c0.202-0.142,0.357-0.362,0.409-0.677c1.112-6.81,2.225-13.621,3.337-20.431C203.313,469.674,202.902,469.105,202.322,469.011
							z M197.914,489.267c-6.137-1.003-12.275-2.006-18.413-3.009c0.997-6.101,1.993-12.202,2.99-18.303
							c6.138,1.003,12.275,2.006,18.412,3.009C199.907,477.065,198.911,483.166,197.914,489.267z"/>
					</g>
					<g>
						<path style="fill:#C0C4C9;" d="M196.151,506.787c-6.851-1.12-13.702-2.239-20.553-3.359c-0.579-0.095-1.15,0.313-1.244,0.889
							c-1.112,6.81-2.225,13.621-3.337,20.431c-0.094,0.575,0.317,1.144,0.897,1.239c6.851,1.12,13.702,2.239,20.553,3.359
							c0.314,0.051,0.572-0.023,0.771-0.166c0.014-0.008,0.028-0.019,0.042-0.028c0.008-0.006,0.016-0.012,0.023-0.018
							c0.202-0.142,0.357-0.362,0.409-0.677c1.113-6.81,2.225-13.621,3.337-20.431C197.142,507.451,196.731,506.882,196.151,506.787
							z M191.743,527.044c-6.137-1.003-12.275-2.006-18.412-3.009c0.997-6.101,1.993-12.202,2.99-18.303
							c6.138,1.003,12.275,2.006,18.413,3.009C193.736,514.842,192.74,520.943,191.743,527.044z"/>
					</g>
				</g>
				<g>
					<polygon style="fill:#D34E4E;" points="193.599,436.737 198.579,435.943 200.436,441.068 225.648,428.582 228.188,429.532 
						198.449,446.636 					"/>
				</g>
				<g>
					<polygon style="fill:#D34E4E;" points="185.559,475.191 190.539,474.398 192.396,479.523 217.608,467.036 220.148,467.987 
						190.409,485.091 					"/>
				</g>
				<g>
					<polygon style="fill:#D34E4E;" points="179.29,510.876 184.27,510.083 186.127,515.208 211.34,502.721 213.879,503.672 
						184.14,520.776 					"/>
				</g>
				<g style="opacity:0.32;">
					
						<rect x="206.683" y="523.102" transform="matrix(0.9869 0.1613 -0.1613 0.9869 88.3863 -32.3423)" style="fill:#8EC3CB;" width="73.47" height="10.351"/>
				</g>
				<g style="opacity:0.32;">
					
						<rect x="213.219" y="483.091" transform="matrix(0.9869 0.1613 -0.1613 0.9869 82.0196 -33.9204)" style="fill:#8EC3CB;" width="73.47" height="10.351"/>
				</g>
				<g style="opacity:0.32;">
					
						<rect x="219.754" y="443.079" transform="matrix(0.9869 0.1613 -0.1613 0.9869 75.6515 -35.4981)" style="fill:#8EC3CB;" width="73.47" height="10.351"/>
				</g>
			</g>
		</g>
		<g>
			<g>
				<path style="fill:#E0E0E0;" d="M809.052,506.603l-70.595,17.13c-26.107,6.335-52.347-9.444-58.609-35.243v0
					c-6.262-25.799,9.825-51.849,35.932-58.184l70.417-17.087L809.052,506.603z"/>
			</g>
			<g>
				<path style="fill:#3B455A;" d="M811.545,505.998l79.372-19.423c23.99-5.821,38.718-29.989,32.895-53.978l-1.592-6.558
					c-5.822-23.987-29.987-38.713-53.974-32.893l-79.378,19.424L811.545,505.998z"/>
			</g>
			<g>
				<g>
					<path style="fill:#3B455A;" d="M769.907,458.559c-5.979,1.451-11.958,2.902-17.937,4.352c-0.56,0.136-1.12,0.272-1.68,0.408
						c-1.044-4.303-2.089-8.606-3.133-12.909c-0.524-2.159-1.048-4.318-1.572-6.477c-0.175-0.719-0.94-1.181-1.67-1.004
						c-3.716,0.902-7.432,1.803-11.148,2.705c-0.728,0.177-1.199,0.936-1.024,1.658c1.434,5.909,2.868,11.817,4.302,17.725
						c0.134,0.553,0.269,1.107,0.403,1.66c-4.354,1.057-8.708,2.113-13.063,3.17c-2.185,0.53-4.369,1.06-6.554,1.59
						c-0.728,0.177-1.199,0.936-1.024,1.658c0.891,3.672,1.783,7.344,2.674,11.016c0.099,0.408,0.328,0.68,0.613,0.838
						c0.275,0.187,0.633,0.269,1.057,0.166c5.979-1.451,11.958-2.902,17.937-4.352c0.56-0.136,1.12-0.272,1.68-0.408
						c1.044,4.303,2.089,8.606,3.133,12.909c0.524,2.159,1.048,4.318,1.572,6.477c0.175,0.719,0.94,1.181,1.67,1.004
						c3.716-0.902,7.432-1.803,11.148-2.705c0.413-0.1,0.689-0.328,0.85-0.611c0.191-0.273,0.275-0.628,0.174-1.047
						c-1.434-5.908-2.868-11.817-4.302-17.725c-0.134-0.553-0.269-1.107-0.403-1.66c4.354-1.056,8.709-2.113,13.063-3.17
						c2.185-0.53,4.369-1.06,6.554-1.59c0.728-0.177,1.199-0.936,1.024-1.658c-0.891-3.672-1.783-7.344-2.674-11.016
						C771.402,458.843,770.637,458.382,769.907,458.559z"/>
				</g>
			</g>
		</g>
		<g>
			<g>
				<polygon style="fill:#C1796B;" points="613.662,428.1 604.638,430.953 597.293,426.989 595.662,428.119 596.971,430.182 
					589.933,428.637 584.734,431.315 583.609,439.015 587.585,446.005 595.349,446.31 603.526,442.004 616.049,438.633 				"/>
			</g>
			<g>
				<path style="fill:#474EBB;" d="M605.988,428.726c14.016-3.287,28.031-6.573,42.047-9.86c3.773-0.885,7.685-1.075,11.458-1.988
					c5.517-1.335,7.027-1.8,7.802-7.061c2.247-15.247-0.608-31.067,1.695-46.086c5.535-0.55,10.879-1.862,16.53-1.787
					c9.227,0.122,8.427,6.469,8.946,13.541c0.615,8.387,0.982,16.801,1.04,25.211c0.048,6.97,2.348,37.197-7.89,39.408
					c-7.337,1.608-81.274,5.545-81.242,7.061C606.362,446.555,605.988,428.726,605.988,428.726z"/>
			</g>
		</g>
		<g>
			<g>
				<path style="fill:#C1796B;" d="M202.99,455.139c1.759-0.551,14.816,2.728,13.952,3.87c-0.942,1.246-2.123,2.235-3.312,3.296
					c3.721,2.27,15.372,6.22,7.061,10.443c-3.6,1.829-13.188-0.743-16.034-3.178c-0.064-0.055-0.129-0.111-0.193-0.166
					l-4.621-12.352C200.554,456.25,201.514,455.602,202.99,455.139z"/>
			</g>
			<g>
				<path style="fill:#8EC3CB;" d="M147.955,419.253l51.83,37.641l0.059,0.158l4.621,12.352l1.2,3.209
					c-27.914-3.618-30.34-11.037-56.688-22.43L147.955,419.253z"/>
			</g>
		</g>
	</g>
</g>
</svg>
